<svg id="Layer_1" data-name="Layer 1" xmlns="http://www.w3.org/2000/svg" xmlns:xlink="http://www.w3.org/1999/xlink" viewBox="0 0 1543.26 2715.72"><defs><style>.cls-1{fill:none;}.cls-2{opacity:0.36;}.cls-3{clip-path:url(#clip-path);}.cls-4{fill:#ffd933;stroke:#ffd933;stroke-miterlimit:10;}</style><clipPath id="clip-path"><rect class="cls-1" width="1543.26" height="2715.72"/></clipPath></defs><g id="Group_49" data-name="Group 49" class="cls-2"><g class="cls-3"><g id="Group_48" data-name="Group 48"><path id="Path_138" data-name="Path 138" class="cls-4" d="M1536.77,93.16l.3,1230q-747.31-2.4-1494.62-4.77A103.46,103.46,0,0,1,31.66,1259c5.9-47.2,43.86-72.16,49.59-75.8a93.78,93.78,0,0,1-24.4-32c-22.11-48.31,7.75-100,15.09-112.67,25.85-44.73,67-63.39,82.8-69.56a153.75,153.75,0,0,1-25.66-62.58C116.66,830.31,169.57,771.61,183,757.74,233.36,705.91,297,699.49,314.66,698.3a151.28,151.28,0,0,1,12.23-37.79c19-39.81,50.89-61,66.72-69.92a208.09,208.09,0,0,1-17-47.07c-19.93-87.07,18.77-181.72,78.78-240.36C562.55,198.49,713,232.66,722.6,235a168,168,0,0,1,27.85-33.91c46.16-43.12,102.34-45.91,110.13-46.19,65.23-2.26,108.73,34.52,117.95,42.69a112.43,112.43,0,0,1,24.87-20.73c40.71-24.93,85.39-16,99.27-12.57a178.65,178.65,0,0,1,7.4-36.54c4.64-14.8,24.77-78.74,89.54-108.12,66.47-30.15,129.15-.85,138,3.48A125,125,0,0,1,1387.3,7.24C1472.24-.77,1532.52,86.81,1536.77,93.16Z"/><path id="Path_139" data-name="Path 139" class="cls-4" d="M1513.65,2619.75q10.85-656.58,21.68-1313.16L45,1296.63c-6.65,9.49-20.77,32-23.13,60.93A89.62,89.62,0,0,0,55.44,1436a127.58,127.58,0,0,0-31,32.61c-32.11,49.46-13.13,102.87-8.47,116,16.44,46.23,53.56,65.83,68,72.34a202.64,202.64,0,0,0-38.62,64.09c-28.24,78.16,12.22,139,22.74,153.45,39.34,53.79,101.39,61,118.77,62.42a142.2,142.2,0,0,0,4.29,39,124.77,124.77,0,0,0,51.91,72.56,271.22,271.22,0,0,0-26.76,48.25c-38,89.32-19.21,187,28.36,247.92,84.94,108.71,242,75.07,252.05,72.75a131.47,131.47,0,0,0,20.67,35.14c37,44.8,92.41,48.23,100.1,48.58,64.54,3,115.56-34.41,126.44-42.71A85.52,85.52,0,0,0,764.41,2480c35.37,26,81.76,17.24,96.31,13.9a179.57,179.57,0,0,0-.26,37.66c1.55,15.26,8.26,81.2,66.67,112,60,31.66,128.52,2.17,138.25-2.19a103.88,103.88,0,0,0,24.92,12.21c25.22,16.26,104,62.48,213,55.15C1417.72,2701.06,1491.88,2639.31,1513.65,2619.75Z"/></g></g></g></svg>