<svg id="Layer_1" data-name="Layer 1" xmlns="http://www.w3.org/2000/svg" viewBox="0 0 1608.91 2021.05"><defs><style>.cls-1{fill:#ffd933;opacity:0.39;}</style></defs><path class="cls-1" d="M1522.07,1849.18a271.23,271.23,0,0,0-68.38-46.7c7.64-18.69,20.34-57.51,11-103.55-15.93-78.91-84.08-117.84-109.94-132.61-14.5-8.28-123.35-68.45-205.52-17a139.57,139.57,0,0,0-40.3,39c-8.66-16.61-61.87-115.25-150.61-121.48a129,129,0,0,0-32.94,2c-.84-4-10-43.91-47.9-59.85-24.36-10.26-46.69-4.73-53.94-2.6-15.16-47.32-49.8-80.2-85.5-81.58-24.22-.94-47.59,12.68-51.71,15.14a109.29,109.29,0,0,0-35.15,34c1.86-9.48,4.95-32.49-6.63-56.62-16.69-34.75-51.23-45.54-59.91-48.25a107.27,107.27,0,0,0-43.79-4.11c11.68-44.66,1.61-89.05-27.59-114.34a91.24,91.24,0,0,0-42.68-20.13c5.94-5,87.54-76.49,69.38-161.62a127.28,127.28,0,0,0-22-48.45c3.34-9.48,25.61-76.44-12.8-140.22-37.42-62.17-104.6-75-120.13-78a181.82,181.82,0,0,0-37.9-3.17c1.78-14.47,5.59-60.8-24.48-99.1a115.37,115.37,0,0,0-23.94-22.76c7.18-10.29,39.3-58.73,29.3-124.56-1.2-7.85-10.68-64.45-59.82-106.13a171.44,171.44,0,0,0-37.66-24.21c1.24-10,18.08-166.49-100.66-262.67C94,30.42,48.13,8.85,0,0V2021.05H1608.91C1599.81,1966.87,1577,1900.83,1522.07,1849.18Z"/></svg>