<svg id="Layer_1" data-name="Layer 1" xmlns="http://www.w3.org/2000/svg" viewBox="0 0 1512.75 3418.19"><defs><style>.cls-1{fill:#ffd933;opacity:0.4;}</style></defs><path class="cls-1" d="M1412.08,131.32a227.86,227.86,0,0,0-9.46,46.74c-17.76-4.33-74.91-15.81-127,16.07a143.78,143.78,0,0,0-31.81,26.52c-11.8-10.45-67.44-57.5-150.88-54.6-10,.35-81.84,3.92-140.88,59.08a214.9,214.9,0,0,0-35.63,43.38c-12.28-3-204.73-46.72-341.8,87.18-76.77,75-126.28,196.09-100.79,307.46a266.88,266.88,0,0,0,21.75,60.21c-20.25,11.46-61,38.51-85.34,89.44a193.09,193.09,0,0,0-15.65,48.35c-22.63,1.52-104,9.73-168.38,76-17.22,17.75-84.89,92.83-69,190.2a196.89,196.89,0,0,0,32.83,80c-20.18,7.89-72.85,31.77-105.92,89-9.38,16.24-47.58,82.33-19.29,144.13A120,120,0,0,0,96,1481.42c-7.33,4.66-55.88,36.59-63.43,97A132.35,132.35,0,0,0,40.46,1641c-8.51,15-18.26,37.16-20.41,63.44A114.62,114.62,0,0,0,63,1804.8a163.23,163.23,0,0,0-39.62,41.71c-41.07,63.28-16.8,131.59-10.83,148.41,21,59.14,68.52,84.22,87,92.55a259.31,259.31,0,0,0-49.41,82c-36.12,100,15.64,177.86,29.1,196.28,50.32,68.82,129.69,78.09,151.92,79.85a181.78,181.78,0,0,0,5.5,49.87A159.59,159.59,0,0,0,303,2588.26,347.57,347.57,0,0,0,268.8,2650c-48.63,114.27-24.57,239.26,36.29,317.15,108.64,139,309.54,96,322.41,93a168.08,168.08,0,0,0,26.44,45c47.33,57.31,118.21,61.69,128,62.14,82.56,3.8,147.83-44,161.74-54.64a109.29,109.29,0,0,0,26.19,27.6c45.24,33.29,104.59,22.05,123.19,17.78a230.14,230.14,0,0,0-.33,48.17c2,19.52,10.57,103.88,85.29,143.34,76.68,40.5,164.4,2.77,176.84-2.8a133.42,133.42,0,0,0,31.88,15.61,453.9,453.9,0,0,0,126,55.85V0C1440.85,39.9,1417.68,113.49,1412.08,131.32Z"/></svg>