<svg id="Layer_1" data-name="Layer 1" xmlns="http://www.w3.org/2000/svg" viewBox="0 0 3587.33 1513.28"><defs><style>.cls-1{fill:#ffd933;opacity:0.4;}</style></defs><path class="cls-1" d="M0,0V1505.23l.86.26c101.13,28.27,186.77-27.84,219.26-49.14,18.22-11.95,152.65-102.76,141.56-228.75a182.39,182.39,0,0,0-21.37-69.92c24.42-.21,170.57-3.57,230.43-103A168.21,168.21,0,0,0,588,1015.25c5.15,1.39,57,14.37,97.95-20.18,26.37-22.23,33.17-51.45,35-61.14,64,10.44,122.7-10.33,145.47-51,15.45-27.59,13.48-62.83,13.05-69.07a142.3,142.3,0,0,0-18.65-61c9.92,7.78,34.83,25,69.73,25.87,50.27,1.19,83.29-32.54,91.58-41a140,140,0,0,0,30.73-48.45c45,40.05,102.52,54.65,149.22,35.72a119.13,119.13,0,0,0,48.69-37.66c2.34,9.89,37,147.06,146.67,176.42a165.91,165.91,0,0,0,69.31,3.21c9,9.5,73.65,75.07,170.53,68.25,94.42-6.63,149.13-77.09,161.8-93.38a237.56,237.56,0,0,0,26.15-42.16c15.76,10.65,67.34,42.54,129.67,30.31a150.82,150.82,0,0,0,40.63-14.34c7.7,14.45,44.94,80.49,127.37,107.88,9.83,3.26,81.22,25.8,158.78-6.59a224,224,0,0,0,50.45-29.41c10.88,7.37,182.74,119.7,364.89,38.74C2799,881,2891.15,780.78,2906.61,663a276.86,276.86,0,0,0,.61-66.6c23.88-3.84,73.44-15.46,115.62-56.32a201.17,201.17,0,0,0,32.76-41.48c22.62,6.72,104.92,28.18,191.73-13.18,23.22-11.05,116.4-59.79,136.19-160.49a204.69,204.69,0,0,0-3-90c22.54-.4,82.54-4.61,135.51-48.42,15.05-12.44,76.22-63,71-133.57A125.25,125.25,0,0,0,3571.39,1.8c1.35-.29,3.87-.85,7.28-1.8Z"/></svg>