<svg id="Layer_1" data-name="Layer 1" xmlns="http://www.w3.org/2000/svg" xmlns:xlink="http://www.w3.org/1999/xlink" viewBox="0 0 2457.26 1609.18"><defs><style>.cls-1,.cls-5{fill:none;}.cls-2{opacity:0.4;}.cls-3{clip-path:url(#clip-path);}.cls-4{fill:#ffd933;}.cls-5{stroke:#ffd933;stroke-miterlimit:10;}</style><clipPath id="clip-path"><rect class="cls-1" x="95.14" y="309.78" width="2266.98" height="989.62" transform="translate(-181.55 394.37) rotate(-17)"/></clipPath></defs><g id="Group_30" data-name="Group 30" class="cls-2"><g class="cls-3"><g id="Group_29" data-name="Group 29"><path id="Path_116" data-name="Path 116" class="cls-4" d="M198.09,1279.58Q103,977.68,7.84,675.76L2159.72,6.37q98,310.13,195.92,620.24a61.49,61.49,0,0,1-6.27,35.32c-13.06,25.09-39.38,31.15-43.33,32a56,56,0,0,1,7,22.85c2.32,31.51-25,54.12-31.74,59.68-23.67,19.58-50.48,21.46-60.55,21.64a91.41,91.41,0,0,1,1.35,40.2c-8.84,45-50.48,66.78-60.85,71.72-38.8,18.48-75.58,8.89-85.68,5.89a90.42,90.42,0,0,1-14.64,18.53c-18.85,18.26-41,23.45-51.67,25.17a123.46,123.46,0,0,1-.27,29.76c-6.91,52.66-48.08,97.42-93.67,117.67-81.4,36.18-158.2-14-163.06-17.31a99.59,99.59,0,0,1-22.55,13.14c-34.65,14.48-66.56,4.41-71,3-36.83-12.24-53.47-41.75-56.92-48.21a67,67,0,0,1-18.15,6.41c-27.86,5.47-50.91-8.79-58-13.54a106.05,106.05,0,0,1-11.68,18.84c-5.66,7.28-30.11,38.76-72.31,41.73-43.29,3-72.16-26.26-76.2-30.5a74.06,74.06,0,0,1-31-1.44c-49-13.12-64.5-74.41-65.54-78.84a53.26,53.26,0,0,1-21.76,16.84c-20.87,8.46-46.59,1.93-66.68-16a62.53,62.53,0,0,1-13.74,21.65c-3.7,3.79-18.45,18.87-40.92,18.33-15.6-.38-26.73-8.08-31.16-11.56a63.55,63.55,0,0,1,8.34,27.26c.19,2.79,1.07,18.53-5.84,30.86-10.17,18.17-36.42,27.45-65,22.78-.82,4.33-3.86,17.39-15.64,27.33-18.31,15.43-41.47,9.63-43.77,9a75.17,75.17,0,0,1-7.7,17.63c-26.75,44.43-92.06,45.92-103,46a81.27,81.27,0,0,1,9.56,31.25c5,56.3-55.12,96.88-63.26,102.21-14.52,9.52-52.79,34.6-98,22-26.37-7.37-43.17-24.24-50.85-33.16a158.26,158.26,0,0,1-42.36,23.14c-75,26.88-146.69-13.52-162.6-23-.56,1.24-12.66,27.41-41.47,30.85-27.14,3.23-44.59-16.64-45.9-18.19a106.17,106.17,0,0,1-24.08,23.93c-13.07,9.35-36.12,26.28-61.13,19.56-20.94-5.62-36.81-26-42.09-51a25.61,25.61,0,0,1-10.64-.26c-17.07-4.24-29-27.64-31.29-58.12"/><path id="Path_117" data-name="Path 117" class="cls-5" d="M198.09,1279.58Q103,977.68,7.84,675.76L2159.72,6.37q98,310.13,195.92,620.24a61.49,61.49,0,0,1-6.27,35.32c-13.06,25.09-39.38,31.15-43.33,32a56,56,0,0,1,7,22.85c2.32,31.51-25,54.12-31.74,59.68-23.67,19.58-50.48,21.46-60.55,21.64a91.41,91.41,0,0,1,1.35,40.2c-8.84,45-50.48,66.78-60.85,71.72-38.8,18.48-75.58,8.89-85.68,5.89a90.42,90.42,0,0,1-14.64,18.53c-18.85,18.26-41,23.45-51.67,25.17a123.46,123.46,0,0,1-.27,29.76c-6.91,52.66-48.08,97.42-93.67,117.67-81.4,36.18-158.2-14-163.06-17.31a99.59,99.59,0,0,1-22.55,13.14c-34.65,14.48-66.56,4.41-71,3-36.83-12.24-53.47-41.75-56.92-48.21a67,67,0,0,1-18.15,6.41c-27.86,5.47-50.91-8.79-58-13.54a106.05,106.05,0,0,1-11.68,18.84c-5.66,7.28-30.11,38.76-72.31,41.73-43.29,3-72.16-26.26-76.2-30.5a74.06,74.06,0,0,1-31-1.44c-49-13.12-64.5-74.41-65.54-78.84a53.26,53.26,0,0,1-21.76,16.84c-20.87,8.46-46.59,1.93-66.68-16a62.53,62.53,0,0,1-13.74,21.65c-3.7,3.79-18.45,18.87-40.92,18.33-15.6-.38-26.73-8.08-31.16-11.56a63.55,63.55,0,0,1,8.34,27.26c.19,2.79,1.07,18.53-5.84,30.86-10.17,18.17-36.42,27.45-65,22.78-.82,4.33-3.86,17.39-15.64,27.33-18.31,15.43-41.47,9.63-43.77,9a75.17,75.17,0,0,1-7.7,17.63c-26.75,44.43-92.06,45.92-103,46a81.27,81.27,0,0,1,9.56,31.25c5,56.3-55.12,96.88-63.26,102.21-14.52,9.52-52.79,34.6-98,22-26.37-7.37-43.17-24.24-50.85-33.16a158.26,158.26,0,0,1-42.36,23.14c-75,26.88-146.69-13.52-162.6-23-.56,1.24-12.66,27.41-41.47,30.85-27.14,3.23-44.59-16.64-45.9-18.19a106.17,106.17,0,0,1-24.08,23.93c-13.07,9.35-36.12,26.28-61.13,19.56-20.94-5.62-36.81-26-42.09-51a25.61,25.61,0,0,1-10.64-.26C212.3,1333.46,200.32,1310.06,198.09,1279.58Z"/></g></g></g></svg>