<svg id="Layer_1" data-name="Layer 1" xmlns="http://www.w3.org/2000/svg" xmlns:xlink="http://www.w3.org/1999/xlink" viewBox="0 0 310.73 400"><defs><style>.cls-1,.cls-3{fill:none;}.cls-2{clip-path:url(#clip-path);}.cls-3{stroke:#b540ff;stroke-miterlimit:10;stroke-width:2px;}</style><clipPath id="clip-path"><rect class="cls-1" width="310.73" height="400"/></clipPath></defs><g class="cls-2"><g id="Group_17" data-name="Group 17"><path id="Path_78" data-name="Path 78" class="cls-3" d="M111,80.94q-2.31-3.61-4.42-7.58C93.51,48.66,92.27,23.11,94,3.92A263.4,263.4,0,0,0,79.46,48.74a182.39,182.39,0,0,0-5.68,39.77,148.56,148.56,0,0,0,11.59,59"/><path id="Path_79" data-name="Path 79" class="cls-3" d="M161.81,153c1.25-2.14,3.09-5.23,5.4-8.89,13.74-21.84,24.17-38.66,41-51.13,14.49-10.72,29.32-15.55,41.66-19.57,13.33-4.34,20.45-4.93,32.2-10.73a103,103,0,0,0,27.14-19.57c-2.28,6.61-5.71,16.1-10.31,27.36-9.79,24-19.63,48-37.65,73A240,240,0,0,1,225,183.25"/><path id="Path_80" data-name="Path 80" class="cls-3" d="M140.4,51.88a20.34,20.34,0,0,1,0-5.62,18.63,18.63,0,0,1,2.34-7c3.33-5,12-4.78,15.45-4.68,9.37.27,23.21,4.39,25.28,12.64,1,3.77-3.13,13-4.68,14"/><path id="Path_81" data-name="Path 81" class="cls-3" d="M145.92,55.79a4.2,4.2,0,1,1-4.19-4.19,4.19,4.19,0,0,1,4.19,4.19Z"/><path id="Path_82" data-name="Path 82" class="cls-3" d="M154.31,57.06a4.2,4.2,0,1,1-4.19-4.2A4.2,4.2,0,0,1,154.31,57.06Z"/><path id="Path_83" data-name="Path 83" class="cls-3" d="M171.81,61.25a4.2,4.2,0,1,1-4.2-4.19A4.2,4.2,0,0,1,171.81,61.25Z"/><path id="Path_84" data-name="Path 84" class="cls-3" d="M180,64.18a4.19,4.19,0,1,1-4.19-4.2,4.2,4.2,0,0,1,4.19,4.2Z"/><path id="Path_85" data-name="Path 85" class="cls-3" d="M161,112.88a4.2,4.2,0,1,1-4.2-4.2h0A4.2,4.2,0,0,1,161,112.88Z"/><path id="Path_86" data-name="Path 86" class="cls-3" d="M163,58.13a4.2,4.2,0,1,1-4.2-4.2h0A4.2,4.2,0,0,1,163,58.13Z"/><path id="Path_87" data-name="Path 87" class="cls-3" d="M137,58.13a4.2,4.2,0,1,1-4.21-4.19h0A4.21,4.21,0,0,1,137,58.13Z"/><path id="Path_88" data-name="Path 88" class="cls-3" d="M129.59,111.84a4.2,4.2,0,1,1-4.2-4.2,4.2,4.2,0,0,1,4.2,4.2Z"/><path id="Path_89" data-name="Path 89" class="cls-3" d="M138.9,69.05a19.6,19.6,0,0,0,2.67,12.08c1.87,2.94,5.53,4.63,12.79,7.9,6.59,3,9,3.44,10.92,6.26a12.22,12.22,0,0,1,2,6.51l3.34-6.61"/><path id="Path_90" data-name="Path 90" class="cls-3" d="M135,77l2.09-.54c-11.67,2.72-15.68,8.26-17.11,10.78-.9,1.59-1.72,3.65-3.8,19-.63,4.62-1.1,8.43-1.41,11a28,28,0,0,1-9.5-22.18c.43-8.9,5.58-14.9,9.26-19.25a40.13,40.13,0,0,1,12.18-10.23,42.33,42.33,0,0,1,27.78-3.39,44.15,44.15,0,0,1,22.18,10.21,68.1,68.1,0,0,1,4.63,5.12c1.64,2,3,3.89,3.88,5.3h0s.92,1.43,1.56,2.54a17.8,17.8,0,0,1,.8,12.72c-2.85,8.54-11.87,11-12.48,11.14"/><path id="Path_91" data-name="Path 91" class="cls-3" d="M170.27,85.43c-.11,2.24-.06,4.09,0,5.46a28.05,28.05,0,0,0,1.4,9c.8,2.19,1.34,2.15,2.21,4.42a19.49,19.49,0,0,1,1.22,6.41"/><line id="Line_6" data-name="Line 6" class="cls-3" x1="137.05" y1="76.44" x2="139.48" y2="76.2"/><path id="Path_92" data-name="Path 92" class="cls-3" d="M107.22,106.66a10.47,10.47,0,0,0-.59,4.26,12.25,12.25,0,0,0,5.48,8.74,12.74,12.74,0,0,0,3.41,1.63"/><path id="Path_93" data-name="Path 93" class="cls-3" d="M114.73,117.25a34,34,0,0,0,1.83,6.26,36.32,36.32,0,0,0,5.48,9.33,45.28,45.28,0,0,0,11,10.07,21.84,21.84,0,0,0,8,4,20.56,20.56,0,0,0,12.59-2.07,33.31,33.31,0,0,0,10.82-7.71,35.79,35.79,0,0,0,8.74-12.59c.36-.9.65-1.73.9-2.5,0,0,.33-1.06.57-2.07a40.8,40.8,0,0,0,.47-9.81"/><path id="Path_94" data-name="Path 94" class="cls-3" d="M155.22,144.1c-.19,1.66-.53,6.24,2,7.88a3.9,3.9,0,0,0,1.72.57,65.15,65.15,0,0,0,9.45,1c5.71-.23,11.25,2.42,15.75,4.58S190,162,196,166.59a131.25,131.25,0,0,0,17.64,11.61,102.43,102.43,0,0,0,28.08,9.7c4.7,1,8.69,1.51,11.52,1.82l4.64-3.84a19.79,19.79,0,0,1,7.27-5c2.24-.88,2.71-.53,2.83-.41.9.88-.64,4.27-2.42,6.67-2.35,3.15-4.78,4.09-4.45,5s2.14.5,6.27,1.82c2.24.71,2.56,1.08,2.62,1.41.25,1.17-2.17,2.89-4.44,3.64a11.31,11.31,0,0,1-5.86.2C254,198.08,260.9,200.42,246,198c-13.07-2.14-19.61-3.2-24.64-4.85-10.35-3.4-17.89-8.06-31.32-16.36-3.61-2.24-6.53-4.16-8.48-5.46a45.67,45.67,0,0,1-4.64,4c-5.08,3.84-7.28,3.83-9.1,6.47-1,1.48-1.16,4.17-1.41,9.49-.33,6.92-.49,10.38.4,12.93a21.93,21.93,0,0,0,7.88,9.7c5.26,4.33,9.9,5.52,14.95,7.47,1.68.65,8.18,4.16,21.17,11.19,22.64,12.24,24.41,14.22,25.34,17,.81,2.46,2.25,9.41-7.1,21.24"/><path id="Path_95" data-name="Path 95" class="cls-3" d="M193,231c25.91,30.27,35.51,40.62,37.61,42a3.94,3.94,0,0,1,1.57,1.71c.56,1.28.37,3.15-1.63,6.26a33.94,33.94,0,0,1-12.16,10.89,34.57,34.57,0,0,1-16.8,3.36l-4.16-7.72c-2.36,1.39-5.7,3.29-9.8,5.39a115.43,115.43,0,0,1-17.14,7.59,53.81,53.81,0,0,1-25.71,1.22,46.57,46.57,0,0,1-1.47-4.89,45.2,45.2,0,0,1-.93-5.15,51.11,51.11,0,0,1-.3-8.57c.23-6.26,0-15.26-.49-27.91"/><path id="Path_96" data-name="Path 96" class="cls-3" d="M142.37,291.65a17.31,17.31,0,0,1-9.35-3.91A10.27,10.27,0,0,1,129.35,276c2-7.5-.45-8.47,2.45-24.49.86-4.77,2.46-11.34,5.63-24.49a65.6,65.6,0,0,0,1.72-8.08c.74-5.91,1.73-13.81-2-20.33-4-7-9.42-5.45-13.71-13.71a20.44,20.44,0,0,1-2.45-10c.16-4.51,2.12-11.55,7.1-13.22.76-.26,2.56-.71,6.86.73a34.38,34.38,0,0,1,14.69,10c1.25-1,3.11-2.33,5.42-3.92,4.57-3.13,6.9-4.69,9.27-5.14a13.72,13.72,0,0,1,9.06,1.71,11,11,0,0,1,1.82,2.75,12.43,12.43,0,0,1,.59,8.37"/><path id="Path_97" data-name="Path 97" class="cls-3" d="M137.36,145.62a11.51,11.51,0,0,1-1.66,9.23c-2.29,3-7.1,3.13-10.58,3.11-10.75,0-16.13-.06-20.54-1.24-10-2.67-17.28-7.64-27.07-14.32-7.12-4.85-10.32-7.84-16.8-9-2.55-.47-9.46-1.63-14,2.49-2,1.79-4.28,5.25-3.11,7.78,1.3,2.8,6.15,2.8,7.78,2.8a19.21,19.21,0,0,0,12.75-5.6,48.29,48.29,0,0,0,6.85,10,56.43,56.43,0,0,0,18,12.75,86.17,86.17,0,0,0,32.37,8.11"/><path id="Path_98" data-name="Path 98" class="cls-3" d="M123.47,184.89a60.19,60.19,0,0,1-6.24-2.82,61.52,61.52,0,0,1-18.14-14.49"/><path id="Path_99" data-name="Path 99" class="cls-3" d="M166.48,190a40.5,40.5,0,0,0,6.06,2.6,47.37,47.37,0,0,0,18.48,2,73.67,73.67,0,0,0,18.79-3.36l3.37-1.22"/><path id="Path_100" data-name="Path 100" class="cls-3" d="M166.48,194.68c2.8.54,6.94,1.34,12,2.38,23.14,4.74,35,7.21,48,11.84a94.84,94.84,0,0,1,27.7,14.26c7.78,6,10.6,10.34,11.83,14.9a20.24,20.24,0,0,1-1.46,15.07c-3.12,5.49-8.31,7.56-13,9.39A39.14,39.14,0,0,1,233.13,265"/><path id="Path_101" data-name="Path 101" class="cls-3" d="M138.19,200.71c-1.64,1.59-4.16,4-7.33,6.78-8.36,7.42-10.81,8.56-15.58,12.82-5.09,4.54-12.14,10.84-16.25,21-2,5-4.59,11.35-2,18.06A21.49,21.49,0,0,0,107.15,270,32.21,32.21,0,0,0,130,273"/><path id="Path_102" data-name="Path 102" class="cls-3" d="M47.09,146l10.65,28.13,4.11-1.81L51.36,146.45"/><line id="Line_7" data-name="Line 7" class="cls-3" x1="44.69" y1="138.21" x2="24.42" y2="82.25"/><line id="Line_8" data-name="Line 8" class="cls-3" x1="48.17" y1="134.77" x2="27.38" y2="80.44"/><path id="Path_103" data-name="Path 103" class="cls-3" d="M13.75,50.08V65.44l-12.3,7,13.13,5.41,2,13.46,9.36-10.83H39.69L33,70.67l4.82-12.52L24.43,61.26Z"/><path id="Path_104" data-name="Path 104" class="cls-3" d="M131.14,99.29a9.54,9.54,0,0,0-6.69-3.41,9.32,9.32,0,0,0-5.91,1.84"/><path id="Path_105" data-name="Path 105" class="cls-3" d="M152.65,100.21A10.16,10.16,0,0,1,164.06,96"/><path id="Path_106" data-name="Path 106" class="cls-3" d="M187.63,292.88a16.87,16.87,0,0,0,.89,9.78,20.52,20.52,0,0,0,7.26,8.2,68.87,68.87,0,0,0,9.92,5.91c3.3,2,7.27,6.84,15.08,16.42,10,12.28,10.08,12.37,10.69,13,4.95,4.94,6.22,4.83,16.6,13.74,6.79,5.84,9.19,8.41,10.5,12.41,1.05,3.23,2.5,8.42.57,9.73-1.33.91-3.64-.42-7.45-2.67a58.9,58.9,0,0,1-12-9.54c-4.1-4.17-3.2-4.05-6.3-7.06-4.38-4.27-6.78-5.08-13.55-9.93-4.28-3.08-3.68-3-11.07-8.78-9.62-7.51-9.39-6.66-15.08-11.26a93.67,93.67,0,0,1-17.94-17.75,74.35,74.35,0,0,1-8-13.81"/><path id="Path_107" data-name="Path 107" class="cls-3" d="M244.93,374.65a11.08,11.08,0,0,0,6.53-2.35,6.11,6.11,0,0,0,.73-8.45"/><path id="Path_108" data-name="Path 108" class="cls-3" d="M196,334.66a33.93,33.93,0,0,0,.61,6.11,37.74,37.74,0,0,0,2.52,7.84c3.84,9.15,5.76,13.73,9.44,16.22a14.4,14.4,0,0,1,4.53,4.12,14.56,14.56,0,0,1,1.86,4.39c1.31,4.39,3,5.76,4.92,9.57,3,5.88,5.12,14.73,2.79,16.22-1.83,1.17-6.22-2.3-8.5-4.65-4.21-4.32-4.56-8.18-7.58-14.36-1.2-2.46-2-3.7-8.5-12.5-9.06-12.34-13.59-18.51-15.82-21.4a324.4,324.4,0,0,1-27.34-43.56"/><path id="Path_109" data-name="Path 109" class="cls-3" d="M177.13,323.65a4.45,4.45,0,0,1-2.52,2.53,4.86,4.86,0,0,1-5.52-2.69"/><path id="Path_110" data-name="Path 110" class="cls-3" d="M189.43,315.3a4.92,4.92,0,0,1-4.63,5.19,5,5,0,0,1-3.57-1.25"/><path id="Path_111" data-name="Path 111" class="cls-3" d="M134.17,111.86c.28-1.79-2.64-4-5.33-4.85-5.24-1.56-12.09,1.64-12.23,4.73-.11,2.48,4.1,5.4,7.75,5.33a15,15,0,0,0,5.93-2.3C132.77,113.49,134,112.83,134.17,111.86Z"/><path id="Path_112" data-name="Path 112" class="cls-3" d="M148.79,113.27c-.15-1.82,2.81-3.41,4.7-4.42a18.53,18.53,0,0,1,7.32-2c3-.32,5.26-.56,6,.63s-.33,2.95-1.64,5.22c-1.58,2.73-2.66,4.59-4.83,5.27-1.84.58-3.43,0-6.12-1S148.93,114.91,148.79,113.27Z"/><path id="Path_113" data-name="Path 113" class="cls-3" d="M136.21,122.93a3.55,3.55,0,0,0-1.12,3.56,3.84,3.84,0,0,0,5.12,1.83l0,0"/><path id="Path_114" data-name="Path 114" class="cls-3" d="M132,132.54a19.59,19.59,0,0,0,4,2.17,22.36,22.36,0,0,0,15.57-.15,12.63,12.63,0,0,1-14.92,3.17A11.33,11.33,0,0,1,132,132.54Z"/><path id="Path_115" data-name="Path 115" class="cls-3" d="M174.54,117.57a10.15,10.15,0,0,0,4.09-1.21,12.17,12.17,0,0,0,5.5-8.73,13.86,13.86,0,0,0,0-3.86"/></g></g></svg>