<svg id="Layer_1" data-name="Layer 1" xmlns="http://www.w3.org/2000/svg" xmlns:xlink="http://www.w3.org/1999/xlink" viewBox="0 0 400 325.59"><defs><style>.cls-1,.cls-3,.cls-4{fill:none;}.cls-2{clip-path:url(#clip-path);}.cls-3,.cls-4{stroke:#b540ff;}.cls-3{stroke-miterlimit:10;stroke-width:2px;}</style><clipPath id="clip-path"><rect class="cls-1" width="400" height="325.59"/></clipPath></defs><g class="cls-2"><g id="Group_15" data-name="Group 15"><path id="Path_25" data-name="Path 25" class="cls-3" d="M154.08,114.77c-2.48,0-6,0-10.21,0-8.36.09-14.26.15-19.78.64l-1.63.16c-12.17,1.31-12.31,4-22,4.31-11.15.37-22.35-2.8-22.32-5.11,0-1.3,3.64-1.81,17.86-5.1a219.87,219.87,0,0,0,33.8-10.84,23,23,0,0,0,9.57-7,21.66,21.66,0,0,0,3.83-8.29c3-11.71,5.72-11.27,11.48-30,3.87-12.58,3.95-17.06,8.93-30,2.06-5.31,3.1-8,4.47-9.57,6.25-7.19,14.68-2.83,37-7,11-2.06,22.35-1.77,33.17-4.47a24,24,0,0,1,14.67,0c.87.33,1.1.49,8.29,5.1s8.77,5.62,11.49,7.66c4,3.05,6.09,4.62,7,6.37,2.33,4.45,1.59,9.83,1.28,12.13a38.36,38.36,0,0,1-.84,4c-.51,2-.77,3-1.08,3-1.35.37-2.65-6.53-8.29-11.48a17,17,0,0,0-9.57-4.47c-2.46-.21-4.74.28-10.84,3.19-8.82,4.21-8.79,5.44-15.95,8.93-6.82,3.33-9.89,3.69-13.39,7.65-3.15,3.57-3.22,6.16-3.19,7,.1,2.82,1.9,4.29,3.19,6.38,3.63,5.85.43,11.84.63,17.22.43,11.15,15.42,19.31,19.78,21.69,23.37,12.73,49.52,3,50.39,7,.56,2.52-9.72,6.78-14,8.29A54,54,0,0,1,253,114.77L230,112.22l-13.5-.06"/><ellipse id="Ellipse_1" data-name="Ellipse 1" class="cls-3" cx="170.79" cy="110.35" rx="17.12" ry="16.56"/><ellipse id="Ellipse_2" data-name="Ellipse 2" class="cls-3" cx="202.3" cy="109.88" rx="14.39" ry="13.92"/><path id="Path_26" data-name="Path 26" class="cls-3" d="M122.48,115.57a17.68,17.68,0,0,0,.28,6.72c0,.17.23.83,0,.95-.4.24-1.53-2.3-3.56-3.06-2.34-.87-5.63.72-7.34,3.06a9.41,9.41,0,0,0,3.77,13.35,7.7,7.7,0,0,0,5.27,0,9,9,0,0,0,3-1.76"/><line id="Line_3" data-name="Line 3" class="cls-3" x1="120.96" y1="149.74" x2="120.93" y2="136.62"/><path id="Path_27" data-name="Path 27" class="cls-3" d="M143.33,141.79a73.55,73.55,0,0,0-14.21,3.78c-5.63,2.11-9.62,3.66-13.42,7.45a26.13,26.13,0,0,0-5.46,8,23.78,23.78,0,0,1,11.82,1.69,29.51,29.51,0,0,0-5.76,4,33.34,33.34,0,0,0-8.75,12.92c-5.28,12.42-5.08,26.77-4.93,31.24a18.89,18.89,0,0,0,9.21-3.78"/><path id="Path_28" data-name="Path 28" class="cls-3" d="M189.2,286.12v37.6c1.67,0,3.37,0,5.09,0a170.73,170.73,0,0,0,48.87-8.06"/><path id="Path_29" data-name="Path 29" class="cls-3" d="M189.2,323.72q-3.31.06-6.72,0a183.34,183.34,0,0,1-50.13-8.07c-3,.57-8.34,1.61-15,3-16.59,3.35-21.2,4.55-28.16,3.29-4.31-.78-10-1.91-13.71-6.77a19.63,19.63,0,0,1-3.29-12.07c-.09-3.45-.23-9.38,3.47-11.7a6,6,0,0,1,5.31-.55c3.17,1.3,3.71,5.42,3.84,6.4a10.64,10.64,0,0,1-1.55,6.85,4.77,4.77,0,0,0-.65-2.27,3.21,3.21,0,0,0-1.88-1.73,2.94,2.94,0,0,0-2.32.63c-2,1.54-1.6,5-1.47,5.85s.68,4.3,3.11,5.12,4.87-1.45,5.49-2c2.05-1.85,1.75-3.31,3.47-5.85a16.57,16.57,0,0,1,6.4-5.31,20.86,20.86,0,0,1,10.42-2.37A24.27,24.27,0,0,1,118,300.52a46.69,46.69,0,0,1,13.9,12.8l1.82,2.21"/><path id="Path_30" data-name="Path 30" class="cls-3" d="M136.48,293a7.8,7.8,0,0,0-2.24-2.3c-3.24-2.09-7.69-.79-11.55,3"/><path id="Path_31" data-name="Path 31" class="cls-3" d="M101.77,296.32a19,19,0,0,1,6.86-4.21c9.72-3.26,18.13,4.06,19.6,5.39"/><path id="Path_32" data-name="Path 32" class="cls-3" d="M95.35,298.5l1.82-7.22c4-15.93,4.74-18.66,5.58-22.09a245.21,245.21,0,0,0,5.1-24.43,158.77,158.77,0,0,0,.92-35.73,46.47,46.47,0,0,0,.85,11.59A48.66,48.66,0,0,0,113,231.11c3.58,8.31,10.94,25.4,15.78,24.36,2.56-.55,2.83-5.88,4.69-5.82s2.33,5.62,3.92,9.28c7.56,17.33,51.09,14.65,55.67,27.48.35,1,1.26,4.23,3.92,5.35,2.47,1,5.22-.29,6.78-1.07,15.29-7.65,17.48-9.28,17.48-9.28,13.4-10,20.1-15,21.77-16.77a74.21,74.21,0,0,0,13.21-20.34"/><path id="Path_33" data-name="Path 33" class="cls-3" d="M68.31,196a8.63,8.63,0,0,0,6,0,8.92,8.92,0,0,0,5-5.28c.21.7.43,1.41.65,2.11a2,2,0,0,0,.41.69,3.09,3.09,0,0,0,.39.33,34.18,34.18,0,0,0,5.62,1.65"/><path id="Path_34" data-name="Path 34" class="cls-3" d="M103.57,194.2a66.42,66.42,0,0,0-7.67-3.15c-2.91-1-6-1.81-10.5-3.71-2.79-1.17-4.7-2.17-4.57-3,.06-.38.57-.53,1-.8,2.09-1.21,2.49-4.28,2.65-5.56.46-3.51-3.77-9-11.3-11.92a2.49,2.49,0,0,1-.62-1,3.17,3.17,0,0,1,.13-1.67,4.61,4.61,0,0,0-.87-3.21,6.44,6.44,0,0,0-5.49-3.33,6.65,6.65,0,0,0-6,5.43,8,8,0,0,0,6,8.6l-3.92-.16"/><path id="Path_35" data-name="Path 35" class="cls-3" d="M61.18,206.17l8.55-2L49.38,110.35l-6.7,1.06Z"/><path id="Path_36" data-name="Path 36" class="cls-3" d="M40.46,102.05l.35,10,10.5-2.46-3.85-9.21"/><path id="Path_37" data-name="Path 37" class="cls-3" d="M32.87,48.58l-7.4,21.76L3,78.92,23,91.36l.89,23.1,20-15.06,22.83,5.28L59.11,84.12l13.58-19.2-25,.62Z"/><path id="Path_38" data-name="Path 38" class="cls-3" d="M47.92,174.44a5,5,0,0,0,2.42,0c2.51-.67,4.36-3.55,4.68-7.21a5.05,5.05,0,0,0-.39-2.82,6.28,6.28,0,0,0-5.45-3.12,8.59,8.59,0,1,0-.29,17.17c.26,0,.52,0,.77,0a13.74,13.74,0,0,1,2.4,0c0,.11-4.81.28-10.51,1.31-7.55,1.37-8.79,2.84-9.26,3.5a6.42,6.42,0,0,0-.46,6.9c1.58,2.34,5,2.38,6.78,2.37,9,0,16.31-7.18,16.27-7.23a95.85,95.85,0,0,0-9,7.57c-4.16,4.56-3.9,6.52-3.73,7.23a5.49,5.49,0,0,0,4.07,3.62c3.06.7,5.66-1.62,7-2.83a15.07,15.07,0,0,0,4.41-8.47l.4-2.51"/><path id="Path_39" data-name="Path 39" class="cls-3" d="M151.11,126.32a45.43,45.43,0,0,0-4.83,7.65,40.21,40.21,0,0,0-3.73,10.59,37.79,37.79,0,0,0,.31,15.42,41.63,41.63,0,0,0,8.1,17.3,40.69,40.69,0,0,0,16.2,11.84c16,6.81,31,2.13,35.83.62,6.28-2,14.88-4.64,21.34-12.93a36.58,36.58,0,0,0,7-17.29,39.34,39.34,0,0,0-.67-17.73,33.53,33.53,0,0,0-2.13-5.49,34.6,34.6,0,0,0-7.64-10.13"/><line id="Line_4" data-name="Line 4" class="cls-3" x1="240.84" y1="143.93" x2="230.67" y2="141.79"/><path id="Path_40" data-name="Path 40" class="cls-3" d="M123,156.83a20.08,20.08,0,0,1,2-1.68,20.36,20.36,0,0,1,5.34-2.81,22.91,22.91,0,0,1,4.63-1.08"/><path id="Path_41" data-name="Path 41" class="cls-3" d="M131.23,152a24.67,24.67,0,0,0-.26,3.22,27.46,27.46,0,0,0,3.29,13.09A35.37,35.37,0,0,0,147,182.14l4.37,2.27,4.31,1.34,5,1.3,3.74.8"/><path id="Path_42" data-name="Path 42" class="cls-3" d="M138.22,174.44a60.19,60.19,0,0,0,9.64,28.61c3.51,5.28,6,9,10.95,12.09a31,31,0,0,0,20.84,4A32.32,32.32,0,0,0,195.29,212"/><path id="Path_43" data-name="Path 43" class="cls-3" d="M189.28,192.71a15.79,15.79,0,0,0-2.31,3.08A18.22,18.22,0,0,0,185.08,208"/><path id="Path_44" data-name="Path 44" class="cls-3" d="M158.81,215.14a8.2,8.2,0,0,1,.84-2.56c2.32-4.34,8-4.85,8.48-4.89a11.91,11.91,0,0,1,8.72,3.19,14.73,14.73,0,0,1,2.67,3.16"/><path id="Path_45" data-name="Path 45" class="cls-3" d="M176.84,211.17a9.88,9.88,0,0,1,2.4-2A9,9,0,0,1,186.3,208a9.8,9.8,0,0,1,5.88,6.31"/><path id="Path_46" data-name="Path 46" class="cls-3" d="M80.34,193.55l-1.11,1.8c-2,4.17-4.84,10-8,17.11-2,4.6-.58,1.87-8.14,20.45a68.91,68.91,0,0,0-4.66,19.45c-.24,2.66-.23,4.36.5,4.65,2.19.89,9.2-11.64,10.31-13.63,3-5.4,11.3-21.12,16.95-48,.65-3.08,1.11-5.6,1.38-7.1"/><path id="Path_47" data-name="Path 47" class="cls-3" d="M296.9,131.58l-28.3-.86-17.73-1.36a13.81,13.81,0,0,0-3.75,2.22c-6.38,5.32-5.59,14.89-5.45,16.71.11,1.39,1.39,15.15,9.37,16.71,4.62.9,8.86-2.8,10.06-3.92.17-1.51.38-3.68.51-6.31.33-6.55.5-9.82-.68-13.13a18.12,18.12,0,0,0-6.14-8.18"/><path id="Path_48" data-name="Path 48" class="cls-3" d="M258.2,136.81a9.75,9.75,0,0,0-6.87-.36c-4.82,1.75-6.58,7.71-6.1,12,.28,2.49,1.68,7.39,5,7.86,2.61.37,5.19-2.21,6.16-4.53a9.22,9.22,0,0,0-.88-7.81,16,16,0,0,0-1-1.69,13.62,13.62,0,0,0-3-3.27"/><path id="Path_49" data-name="Path 49" class="cls-3" d="M255.49,143.93l-6.1-1.07a5.48,5.48,0,0,1,1.37,1.51,5.75,5.75,0,0,1,.35,5.27,5.64,5.64,0,0,1-3.8,2.92"/><path id="Path_50" data-name="Path 50" class="cls-3" d="M261.1,161.07c-.75,4.21-1.7,8.68-2.9,13.36q-1.43,5.53-3,10.45c.37.25.87.6,1.45,1.05,2.49,1.9,4.79,4.3,4.55,4.61s-1.08-.51-3.73-1.77c-1.18-.56-2.16-1-2.84-1.27,0,.45,0,1.1,0,1.9a26.24,26.24,0,0,1-2.14,8.53c-.27.76-.77,3.64-1.78,9.4-1.19,6.78-1.27,8.13-.65,9.8a10.35,10.35,0,0,0,3.89,4.78,10.26,10.26,0,0,0-.61,1.3,10.91,10.91,0,0,0-.69,3.24,27.89,27.89,0,0,0,.79,7.23c.39,1.7.87,3.42,1.83,6.88,1,3.73,1.36,4.65,1.76,6.73s.33,2.41.66,3.57a14.55,14.55,0,0,0,3.16,5.68,4.48,4.48,0,0,0-.92,1.32,6.58,6.58,0,0,0,.24,4.95s2.33,6.5,3.28,9.31A39.37,39.37,0,0,1,265,280c.71,5.16.28,6.37,0,21.06-.09,4.68-.08,6-.9,8.06-1.25,3.12-3.3,5-6.72,8.07a65.16,65.16,0,0,1-8.95,6.72,33.38,33.38,0,0,1-2.35-3.08,29,29,0,0,1-4-8.08,26.26,26.26,0,0,1-.89-9.62,35.43,35.43,0,0,1,2.88-11.4,51.42,51.42,0,0,1,7-12.28c.66.86,1.61,2.13,2.7,3.68a45.63,45.63,0,0,1,4.24,6.59c1.8,4,.68,8.17-.19,11.36a25.48,25.48,0,0,1-1.39,3.9,29.51,29.51,0,0,1-7.89,10.27,17.34,17.34,0,0,1-2-4.33,19.38,19.38,0,0,1-.45-8.4,21.24,21.24,0,0,1,2-6.85c.92-1.82,1.47-2.93,2.62-3.43,2-.86,4.79.43,7.21,3"/><path id="Path_51" data-name="Path 51" class="cls-3" d="M256.42,304.93l-7.27-.64a11.16,11.16,0,0,0,1.42-2.28,13.23,13.23,0,0,0,.13-9.82"/><line id="Line_5" data-name="Line 5" class="cls-3" x1="251.06" y1="279.39" x2="265.38" y2="284.48"/><path id="Path_52" data-name="Path 52" class="cls-3" d="M251.74,321.65a131.63,131.63,0,0,0,15.89,0,166.19,166.19,0,0,0,27.09-4.25c13.25-2.9,12.9-3.8,20.65-4.86a119.36,119.36,0,0,1,22.36-.66,175.68,175.68,0,0,1,25.7,2.28c6.72,1.15,12.78,2.66,21.53,1.73,5.37-.57,8-1.66,9.89-3.64,2.56-2.7,2.93-6.21,3.47-12a55.73,55.73,0,0,0-.2-12.18l-4.54,2.37,5-5.73v-3.46c0-6.77.08-10.85.1-13.42,0-1.61.08-11.54-1-23.14a25.53,25.53,0,0,0-2-8.65,24.06,24.06,0,0,0-5.22-7.45,4.94,4.94,0,0,0,2.21-1.91,7.14,7.14,0,0,0,.1-5.43,52.71,52.71,0,0,1-1.71-9.66c0-3.17,1-3.44,1.41-8.25a37.81,37.81,0,0,0,.1-5.73c-3.23-16-1.84-25.56.19-31.37.43-1.24,2.07-5.71,1.12-6.26-1.32-.76-6.6,6.68-7.22,6.26-.39-.27,1.23-3.63,7.06-13.31.18-2.63.18-4.82.16-6.41a56.64,56.64,0,0,0-1.76-13.15c-.92-3.55-1.5-4.23-1.93-4.65-2.75-2.65-7.65-1.48-9-1.12l-21.48,1.6-25.17,2.24-.84.19"/><path id="Path_53" data-name="Path 53" class="cls-3" d="M306.1,122.85a4.2,4.2,0,0,1,2.12,1.3c2.23,2.38,3,7.62,2,12.83a11.18,11.18,0,0,1-3,6.64,7.24,7.24,0,0,1-5.74,2.22,7,7,0,0,1-4.82-3.52,9.89,9.89,0,0,1-.66-6.58,19.36,19.36,0,0,1,2.9-8,10.54,10.54,0,0,1,4-4.23A4.69,4.69,0,0,1,306.1,122.85Z"/><path id="Path_54" data-name="Path 54" class="cls-3" d="M308.22,124.15a4.29,4.29,0,0,1,1.54-1.39,6,6,0,0,1,5.3.51,11,11,0,0,1,3.39,3.39,18.16,18.16,0,0,1,3.26,5.55,11.87,11.87,0,0,1,.76,3.58,11.71,11.71,0,0,1-.89,4.92,7.37,7.37,0,0,1-3,4.21,6.23,6.23,0,0,1-6.19-.38,6.79,6.79,0,0,1-2.94-4.6"/><path id="Path_55" data-name="Path 55" class="cls-3" d="M317.1,125a5,5,0,0,1,.79-1.39,5.17,5.17,0,0,1,2.93-1.7,7,7,0,0,1,2.84,0,12.32,12.32,0,0,1,2.67.75,13.18,13.18,0,0,1,5.79,5.49,11.65,11.65,0,0,1,1.93,6.37,6.61,6.61,0,0,1-1.93,5.35c-2.33,1.75-5.74.27-6.38,0a8.93,8.93,0,0,1-3.43-2.68"/><path id="Path_56" data-name="Path 56" class="cls-3" d="M251.4,114.6v6.22a5.9,5.9,0,0,1,2.16-2.38,7.21,7.21,0,0,1,8.31,1.35,7.93,7.93,0,0,1,2.29,5.3,5.86,5.86,0,0,1,0,2,6,6,0,0,1-1.69,3.2"/><path id="Path_57" data-name="Path 57" class="cls-3" d="M253.7,129.58a9.77,9.77,0,0,1-.24-2.15,7.3,7.3,0,0,1,.45-2.7,6.32,6.32,0,0,1,2.46-2.92"/><path id="Path_58" data-name="Path 58" class="cls-3" d="M254.16,124.18a2.93,2.93,0,0,0,.35,1.18,4.35,4.35,0,0,0,3.71,1.66"/><path id="Path_59" data-name="Path 59" class="cls-3" d="M118.18,124.38a4.72,4.72,0,0,1,1.62,1.22,4.42,4.42,0,0,1,.85,1.47,7,7,0,0,1,.06,4"/><path id="Path_60" data-name="Path 60" class="cls-3" d="M120.65,127.06a3.52,3.52,0,0,1-1.27,1.12,3.59,3.59,0,0,1-2.21.33"/><path id="Path_61" data-name="Path 61" class="cls-3" d="M176.16,111.92a2.68,2.68,0,1,1-2.68-2.69A2.68,2.68,0,0,1,176.16,111.92Z"/><path id="Path_62" data-name="Path 62" class="cls-3" d="M196,111.92a2.69,2.69,0,1,1-2.68-2.69h0A2.68,2.68,0,0,1,196,111.92Z"/><path id="Path_63" data-name="Path 63" class="cls-4" d="M174.62,112.86a1.14,1.14,0,1,1-1.14-1.14,1.13,1.13,0,0,1,1.14,1.14h0"/><path id="Path_64" data-name="Path 64" class="cls-3" d="M174.62,112.86a1.14,1.14,0,1,1-1.14-1.14,1.13,1.13,0,0,1,1.14,1.14Z"/><path id="Path_65" data-name="Path 65" class="cls-4" d="M194.46,112.85a1.18,1.18,0,1,1-1.18-1.17h0a1.17,1.17,0,0,1,1.18,1.17"/><path id="Path_66" data-name="Path 66" class="cls-3" d="M194.46,112.85a1.18,1.18,0,1,1-1.18-1.17h0A1.17,1.17,0,0,1,194.46,112.85Z"/><path id="Path_67" data-name="Path 67" class="cls-3" d="M153.46,57.49l1.46,4.77,8.47.38-5,5.93,1,6.78-6.31-2.94-4.93,3.39-.86-3.47"/><path id="Path_68" data-name="Path 68" class="cls-3" d="M186.88,45.35l4.71,10.18,8.12,1.21-6,8.39,1.38,9.24-8.25-3.2-8.27,4.71,1.13-10.75-6.26-7,8.33-2.45Z"/><path id="Path_69" data-name="Path 69" class="cls-3" d="M164.93,20.28,166,24h9l-5.87,5.4L171,36.81l-6.1-4-5.38,3"/><path id="Path_70" data-name="Path 70" class="cls-3" d="M232.82,9.17,236,14.39h6.31l-4.11,3.72,1.64,5-5.8-2.71-5.54,4.23.82-5.86-4.85-3.21,6.05-.69Z"/><path id="Path_71" data-name="Path 71" class="cls-3" d="M138.81,100.15l2.11,4.7h4.23l-3.26,3.05,1,3.17-3.84-2.61-4.4,2.61.61-4-3.3-2.41,4.71-.38Z"/><path id="Path_72" data-name="Path 72" class="cls-3" d="M152.46,96a9.47,9.47,0,0,1,0-2.91c.34-2.13,1.4-3.89,4.5-7.11,3.8-3.93,5.69-5.89,8.29-6.87,1.5-.56,6.16-2.3,8.18,0,1.49,1.7,1.16,5.15-1.07,8.18l-3.54.59-2.14,3.66-.83-3.31-6.28,6.27.59-4.5Z"/><path id="Path_73" data-name="Path 73" class="cls-3" d="M211.65,95a7.37,7.37,0,0,0,0-2.48c-.33-1.82-1.35-3.33-4.33-6.08-3.66-3.36-5.48-5-8-5.87-1.44-.48-5.92-2-7.87,0-1.43,1.45-1.12,4.4,1,7l3.42.51L198,91.15l.8-2.83,6,5.36-.57-3.85Z"/><path id="Path_74" data-name="Path 74" class="cls-3" d="M222.63,78.28l-6-3.54.24,7.58-5.09,3.73,7,1.06,1.74,6.68,3.05-7.05,3.73,1.12"/><path id="Path_75" data-name="Path 75" class="cls-3" d="M199.86,7.85A12.37,12.37,0,0,0,198.69,12a12.78,12.78,0,0,0,3,9.39A12.42,12.42,0,0,0,216,23.11a14.56,14.56,0,0,1-2.56,3.33,15.42,15.42,0,0,1-14.08,3.92,13.32,13.32,0,0,1-7.84-5A13.13,13.13,0,0,1,189.14,17a13.84,13.84,0,0,1,3.27-8.27"/><path id="Path_76" data-name="Path 76" class="cls-3" d="M248.4,100.05l-8.79,2.4,10.89,2,2.18,7,3.52-7.06,6-1.12"/><path id="Path_77" data-name="Path 77" class="cls-3" d="M107.85,244.76l-8.58,2q-9,2.08-18,4.06l-18.39,2.79"/></g></g></svg>