<svg xmlns="http://www.w3.org/2000/svg" xmlns:xlink="http://www.w3.org/1999/xlink" width="246.233" height="123.126" viewBox="0 0 246.233 123.126">
  <defs>
    <clipPath id="clip-path">
      <rect id="Rectangle_22" data-name="Rectangle 22" width="246.233" height="123.126" fill="none"/>
    </clipPath>
    <clipPath id="clip-path-2">
      <rect id="Rectangle_20" data-name="Rectangle 20" width="28.883" height="49.839" fill="none"/>
    </clipPath>
    <clipPath id="clip-path-3">
      <rect id="Rectangle_21" data-name="Rectangle 21" width="59.815" height="27.96" fill="none"/>
    </clipPath>
  </defs>
  <g id="Group_46" data-name="Group 46" transform="translate(0 0.001)">
    <g id="Group_45" data-name="Group 45" transform="translate(0 -0.001)" clip-path="url(#clip-path)">
      <path id="Path_122" data-name="Path 122" d="M35.816,44.292q-.148.884-.626,3.39t-1.142,5.933q-.664,3.429-1.438,7.407t-1.474,7.738q-.7,3.759-1.289,6.928T28.962,80.7a17.77,17.77,0,0,1-.257-2.321q-.11-1.658-.184-3.869t-.185-4.754q-.11-2.542-.257-4.974t-.3-4.458q-.148-2.026-.369-3.279H19.087q-.148,1.841-.369,5.3t-.441,7.15q-.223,3.684-.442,6.853T17.466,80.7q-.22-1.621-.553-4.422t-.7-6.116q-.37-3.316-.811-6.854t-.81-6.706q-.37-3.168-.663-5.712t-.442-3.869q-1.107.148-2.8.369T7.112,47.9q-1.879.3-3.8.553T0,48.861q.22,1.991.958,5.822T2.616,63.2q.919,4.681,2.026,9.765t2.1,9.618q1,4.531,1.807,8t1.179,4.938H21.887q.22-.957.738-3.1t1.105-5.159q.809,2.875,1.363,5.049t.848,3.206h11.79q.223-1.032.775-3.685t1.326-6.265q.774-3.609,1.7-7.885t1.842-8.659q.922-4.386,1.805-8.586t1.585-7.591q.7-3.389,1.179-5.675t.553-2.874Z" transform="translate(0 20.815)" fill="#b540ff"/>
      <path id="Path_123" data-name="Path 123" d="M38.775,57.745q-1.954,0-3.612-.037t-2.174-.037c.1.835.2,1.6.3,2.284s.172,1.523.22,2.506h5.2q1.731,0,3.279.037t2.358.037a19.36,19.36,0,0,0,.442-2.469q.148-1.288.294-2.321h-6.3Z" transform="translate(15.503 27.103)" fill="#b540ff"/>
      <path id="Path_124" data-name="Path 124" d="M38.965,62.434H33.291q0,.884.073,3.132t.184,5.306q.11,3.058.22,6.485t.222,6.559q.11,3.133.184,5.637t.074,3.685h8.329q.073-.957.22-3.463t.332-5.749q.183-3.241.4-6.781t.406-6.632q.183-3.1.3-5.343t.184-2.837H38.965Z" transform="translate(15.644 29.34)" fill="#b540ff"/>
      <path id="Path_125" data-name="Path 125" d="M42.69,60.015q.884-.073,2.543-.22t3.8-.369q2.137-.22,4.569-.479t4.864-.479q-1.989,2.582-4.385,5.712t-4.605,5.969q-2.212,2.838-3.981,5.011a30.155,30.155,0,0,1-2.58,2.91q0,1.7.038,3.87t.11,3.206H70.4q0-.736.037-2.69t.074-4.128q.037-2.174.038-4.017V72.028q-2.286.3-5.712,1.032t-7.112,1.621Q59.493,72.619,61.3,70.3t3.537-4.642q1.731-2.322,3.243-4.5t2.763-3.869q0-.884.073-2.174t.147-2.616q.073-1.325.11-2.5t.038-1.843H42.69Z" transform="translate(20.061 22.628)" fill="#b540ff"/>
      <path id="Path_126" data-name="Path 126" d="M107.038,59.462q4.313-2.774,7.632-5.055a48.958,48.958,0,0,0,4.411-3.271q-1.389-1.685-3.122-3.866t-3.421-4.263q-1.685-2.081-3.022-3.816t-1.933-2.428q-1.488,1.094-4.213,3.469t-6,5.353Q94.1,48.558,90.634,51.83t-6.541,6.244q.1-3.865.247-7.285t.3-6.244q.15-2.827.248-4.858t.2-2.924H65.655q.1,2.875.2,8.574t.2,12.687q.1,6.987.2,14.57t.2,14.275q.1,6.69.1,11.745t-.1,7.038H82.011q.1-1.188.2-3.866t.2-6.046q.1-3.369.2-6.938t.3-6.443q2.974,3.27,6.691,6.987t7.186,7.088q3.468,3.371,6.244,5.947t3.766,3.469q1.585-1.486,3.272-3.172t3.319-3.371q1.636-1.682,3.124-3.321t2.577-2.924q-1.784-1.387-5.352-4.113T105.947,83q-4.214-3.219-8.524-6.591t-7.582-5.947q3.665-2.379,8.276-5.3t8.921-5.7" transform="translate(30.853 17.277)" fill="#b540ff"/>
      <path id="Path_127" data-name="Path 127" d="M109.654,62.618h-5.675q0,.884.075,3.132t.184,5.306q.11,3.058.221,6.485t.222,6.559q.11,3.133.184,5.637t.073,3.685h8.327q.073-.957.222-3.463t.332-5.749q.183-3.241.4-6.779t.406-6.634q.183-3.093.3-5.343t.184-2.837h-5.453Z" transform="translate(48.863 29.427)" fill="#b540ff"/>
      <path id="Path_128" data-name="Path 128" d="M109.465,57.928q-1.954,0-3.612-.037t-2.174-.037c.1.835.2,1.6.3,2.284s.172,1.523.22,2.506h5.2q1.731,0,3.279.037t2.358.037a19.359,19.359,0,0,0,.442-2.469q.146-1.288.294-2.321h-6.3Z" transform="translate(48.722 27.189)" fill="#b540ff"/>
      <path id="Path_129" data-name="Path 129" d="M137.6,45.112v5.675q0,3.1.037,6.263t.037,5.528a12.523,12.523,0,0,0-3.906-4.57,8.955,8.955,0,0,0-4.827-1.621,10.716,10.716,0,0,0-5.086,1.18,13.012,13.012,0,0,0-4.532,3.831,21.8,21.8,0,0,0-3.279,6.412,27.719,27.719,0,0,0-1.289,8.845,13.81,13.81,0,0,0,1.4,6.449,12.24,12.24,0,0,0,3.612,4.311,12.426,12.426,0,0,0,4.9,2.174,12.2,12.2,0,0,0,5.158,0,10.427,10.427,0,0,0,4.458-2.212,9.26,9.26,0,0,0,2.875-4.458q-.15,1.7-.147,3.426t.074,2.985h9.949q.148-1.768.406-5.637t.553-8.808q.293-4.935.589-10.317t.516-10.132q.221-4.754.369-8.292t.147-4.791H137.6Zm-3,38.4a5.923,5.923,0,0,1-3.656,2.4,4.965,4.965,0,0,1-3.866-.986,6.228,6.228,0,0,1-2.337-4.154,10.6,10.6,0,0,1,.169-5.054,8.351,8.351,0,0,1,1.955-3.426,5.982,5.982,0,0,1,2.89-1.671,4.663,4.663,0,0,1,3.06.257,5.433,5.433,0,0,1,2.421,2.27,8.652,8.652,0,0,1,.979,4.455,9.4,9.4,0,0,1-1.615,5.911" transform="translate(53.926 19.434)" fill="#b540ff"/>
      <path id="Path_130" data-name="Path 130" d="M157.229,74.681Q159,72.619,160.8,70.3t3.538-4.644q1.729-2.322,3.241-4.5t2.763-3.869c0-.589.369-8.7.369-9.139H142.2V60.015q.884-.073,2.543-.222t3.8-.367q2.137-.22,4.57-.479t4.864-.479q-1.991,2.58-4.385,5.712t-4.607,5.969Q146.764,72.987,145,75.16a30.36,30.36,0,0,1-2.58,2.91q0,1.7.037,3.869t.11,3.206L179.2,84.131c0-.491.207-14.019.207-14.019-1.524.2-19.725,3.979-22.181,4.569" transform="translate(66.822 22.628)" fill="#b540ff"/>
      <g id="Group_41" data-name="Group 41" transform="translate(92.338 2.15)" style="isolation: isolate">
        <g id="Group_40" data-name="Group 40">
          <g id="Group_39" data-name="Group 39" clip-path="url(#clip-path-2)">
            <path id="Path_131" data-name="Path 131" d="M66.988,24.785l-2.8,4.948-.3-.022a3.833,3.833,0,0,1-.329-.9c-.257-2.527-.512-5.054-.714-7.585a14.879,14.879,0,0,1,1.008-5.611,15.757,15.757,0,0,1,2.571-5.595c.76-.922,1.536-1.834,2.256-2.788a2.968,2.968,0,0,0,.287-.964,7.877,7.877,0,0,0-1.022.029,5.238,5.238,0,0,0-.838.273A3.347,3.347,0,0,1,69.277,3.24c2.522-.557,5.054-1.349,7.679-.86a17.075,17.075,0,0,1,2.912,1.063c.3.113.579.27.867.409l.225-.245q-1.032-.765-2.067-1.529l.27-.384c1.848-.191,3.756-.531,5.493.313a6.033,6.033,0,0,1,2,2.112c1.173,1.717,2.25,3.5,3.338,5.274a14.132,14.132,0,0,1,1.71,7.219,3.67,3.67,0,0,1-.25.9,8.765,8.765,0,0,1-2.624-3.772A42.449,42.449,0,0,1,87.651,9.15c-.207.475-.388.814-.509,1.174-.384,1.149-.691,1.279-1.633.544A14.483,14.483,0,0,0,80.751,8.04c-1.505-.44-3.035-.8-4.555-1.192l-.116.2c.492.541,1.008,1.063,1.473,1.627a18.8,18.8,0,0,1,3.472,7.354c.416,1.585.858,3.162,1.28,4.745.281,1.051.273,1.052-.8,1.451.532,1,1.048,1.99,1.586,2.969a100.285,100.285,0,0,1,7,14.864c.684,1.948.34,1.861-.986,3.047a30.365,30.365,0,0,1-12.938,7.063,40,40,0,0,1-10.919,1.111c-1.552-.046-2.109-.669-2.068-2.22.1-3.735.163-7.475.41-11.2a27.513,27.513,0,0,1,2.552-9.741c.478-1.036.766-2.159,1.141-3.244l-.3-.091" transform="translate(-62.818 -1.462)" fill="#0675ba"/>
          </g>
        </g>
      </g>
      <g id="Group_44" data-name="Group 44" transform="translate(78.403 35.567)" style="isolation: isolate">
        <g id="Group_43" data-name="Group 43">
          <g id="Group_42" data-name="Group 42" clip-path="url(#clip-path-3)">
            <path id="Path_132" data-name="Path 132" d="M101.077,39.645l3.319-3.751-.223-.247c-.761.522-1.5,1.077-2.287,1.561-3.7,2.275-7.336,4.682-11.152,6.75A96.277,96.277,0,0,1,80.17,48.847a85.525,85.525,0,0,1-8.733,2.606,21.538,21.538,0,0,1-10.808.026c-2.253-.531-4.447-1.219-6.1-3.021a3.513,3.513,0,0,1-.2-5.087,15.576,15.576,0,0,1,3.171-3,30.021,30.021,0,0,1,7.879-3.979c.248-.084.509-.134.941-.245,0,1.224.015,2.346,0,3.468a2.065,2.065,0,0,0,1.332,2.12,11.555,11.555,0,0,0,5.625.77A37.495,37.495,0,0,0,89.4,37.54a24.149,24.149,0,0,0,6.31-5.068,2.008,2.008,0,0,0,.394-2.236c-.438-1.142-.87-2.286-1.326-3.422-.178-.444-.273-.819.344-.961,3.7-.851,7.4-1.782,11.233-1.642a7.7,7.7,0,0,1,5.233,1.777,5.059,5.059,0,0,1,.4,6.9,20.052,20.052,0,0,1-6.457,4.755c-1.423.741-2.881,1.416-4.323,2.121l-.126-.119" transform="translate(-53.338 -24.196)" fill="#0675ba"/>
          </g>
        </g>
      </g>
      <path id="Path_133" data-name="Path 133" d="M97.1,20.567c-.722-.922-1.452-1.836-2.164-2.765-1.914-2.5-3.663-5.173-6.463-6.8a25.091,25.091,0,0,0-3.448-1.364c3.01,8.809,5.218,17.682,9.628,25.883,2.068-.47,4.248-1.014,6.449-1.454a19.4,19.4,0,0,1,7.476-.372,9.615,9.615,0,0,1,6.479,4.05,4.848,4.848,0,0,1,.294,4.99,14.489,14.489,0,0,1-4.511,5.168,45.849,45.849,0,0,1-10.491,5.978c-2.3.989-4.761,1.586-7.081,2.528-2.711,1.1-5.346,2.384-8.016,3.584a48.9,48.9,0,0,1-9.137,3c-2.472.569-4.949,1.141-7.448,1.568a18.662,18.662,0,0,1-12.23-1.887,9.322,9.322,0,0,1-4.22-3.872,4.219,4.219,0,0,1-.1-3.691,10.233,10.233,0,0,1,4.444-4.5c2.386-1.485,4.87-2.816,7.326-4.186.841-.47,1.737-.838,2.583-1.3a.932.932,0,0,0,.432-.641c.125-3.554.329-7.113.281-10.667-.04-3.013-.41-6.021-.578-9.036a25.892,25.892,0,0,1-.043-5.071,41.047,41.047,0,0,1,1.549-6.187c.542-1.751,1.294-3.435,1.948-5.149.465-1.217.917-2.437,1.382-3.654a3.477,3.477,0,0,1,2.443-2.233A51.991,51.991,0,0,1,84.8.579,22.638,22.638,0,0,1,87.985.541c1.956.138,3.272,1.408,4.372,2.846,1.167,1.526,2.061,3.265,3.278,4.745,1.752,2.128,1.984,4.605,2.024,7.163.024,1.432-.049,2.866-.093,4.3a6.569,6.569,0,0,1-.132.835l-.331.138m-24.914,4.67c.1.029.2.06.3.091-.375,1.083-.663,2.208-1.141,3.244A27.482,27.482,0,0,0,68.8,38.314c-.247,3.726-.31,7.466-.41,11.2-.043,1.551.514,2.174,2.068,2.218a39.888,39.888,0,0,0,10.919-1.111,30.353,30.353,0,0,0,12.937-7.063c1.327-1.186,1.67-1.1.988-3.046a100.293,100.293,0,0,0-7-14.864c-.537-.98-1.052-1.971-1.586-2.969,1.075-.4,1.08-.4.8-1.451-.422-1.583-.864-3.162-1.282-4.746a18.788,18.788,0,0,0-3.472-7.354c-.465-.564-.98-1.086-1.471-1.627l.115-.2c1.52.394,3.05.753,4.557,1.191a14.5,14.5,0,0,1,4.757,2.83c.942.735,1.249.606,1.635-.544.121-.36.3-.7.507-1.174a42.676,42.676,0,0,0,1.176,4.591,8.769,8.769,0,0,0,2.624,3.772,3.737,3.737,0,0,0,.251-.9,14.131,14.131,0,0,0-1.711-7.217C94.1,8.071,93.027,6.288,91.854,4.572A6.03,6.03,0,0,0,89.86,2.459c-1.739-.844-3.647-.5-5.493-.315-.091.128-.181.256-.272.385l2.068,1.527-.225.247c-.29-.138-.57-.3-.867-.41a17.247,17.247,0,0,0-2.912-1.063c-2.625-.489-5.157.3-7.68.861a3.346,3.346,0,0,0-2.17,3.329,5.049,5.049,0,0,1,.838-.273,8.114,8.114,0,0,1,1.02-.031,2.906,2.906,0,0,1-.287.966c-.72.954-1.495,1.865-2.256,2.788a15.747,15.747,0,0,0-2.569,5.593,14.829,14.829,0,0,0-1.008,5.612c.2,2.531.456,5.058.713,7.585a3.8,3.8,0,0,0,.331.9l.3.022,2.8-4.948M101.825,50.78l.126.119c1.442-.706,2.9-1.38,4.323-2.121a20.052,20.052,0,0,0,6.457-4.755,5.059,5.059,0,0,0-.4-6.9,7.7,7.7,0,0,0-5.233-1.777c-3.838-.14-7.532.791-11.233,1.642-.617.143-.522.517-.344.961.456,1.136.888,2.28,1.326,3.422a2.008,2.008,0,0,1-.394,2.236,24.149,24.149,0,0,1-6.31,5.068,37.495,37.495,0,0,1-16.121,4.965,11.555,11.555,0,0,1-5.625-.77,2.065,2.065,0,0,1-1.332-2.12c.019-1.122,0-2.243,0-3.468-.432.112-.692.162-.941.245a30.021,30.021,0,0,0-7.879,3.979,15.576,15.576,0,0,0-3.171,3,3.513,3.513,0,0,0,.2,5.087c1.652,1.8,3.845,2.49,6.1,3.021a21.538,21.538,0,0,0,10.808-.026,85.525,85.525,0,0,0,8.733-2.606,96.277,96.277,0,0,0,10.563-4.889c3.816-2.068,7.45-4.474,11.152-6.75.785-.484,1.526-1.039,2.287-1.561l.223.247-3.319,3.751" transform="translate(24.317 0.236)"/>
      <path id="Path_134" data-name="Path 134" d="M97.1,20.567c-.722-.922-1.452-1.836-2.164-2.765-1.914-2.5-3.663-5.173-6.463-6.8a25.091,25.091,0,0,0-3.448-1.364c3.01,8.809,5.218,17.682,9.628,25.883,2.068-.47,4.248-1.014,6.449-1.454a19.4,19.4,0,0,1,7.476-.372,9.615,9.615,0,0,1,6.479,4.05,4.848,4.848,0,0,1,.294,4.99,14.489,14.489,0,0,1-4.511,5.168,45.849,45.849,0,0,1-10.491,5.978c-2.3.989-4.761,1.586-7.081,2.528-2.711,1.1-5.346,2.384-8.016,3.584a48.9,48.9,0,0,1-9.137,3c-2.472.569-4.949,1.141-7.448,1.568a18.662,18.662,0,0,1-12.23-1.887,9.322,9.322,0,0,1-4.22-3.872,4.219,4.219,0,0,1-.1-3.691,10.233,10.233,0,0,1,4.444-4.5c2.386-1.485,4.87-2.816,7.326-4.186.841-.47,1.737-.838,2.583-1.3a.932.932,0,0,0,.432-.641c.125-3.554.329-7.113.281-10.667-.04-3.013-.41-6.021-.578-9.036a25.892,25.892,0,0,1-.043-5.071,41.047,41.047,0,0,1,1.549-6.187c.542-1.751,1.294-3.435,1.948-5.149.465-1.217.917-2.437,1.382-3.654a3.477,3.477,0,0,1,2.443-2.233A51.991,51.991,0,0,1,84.8.579,22.638,22.638,0,0,1,87.985.541c1.956.138,3.272,1.408,4.372,2.846,1.167,1.526,2.061,3.265,3.278,4.745,1.752,2.128,1.984,4.605,2.024,7.163.024,1.432-.049,2.866-.093,4.3a6.569,6.569,0,0,1-.132.835Zm-24.914,4.67c.1.029.2.06.3.091-.375,1.083-.663,2.208-1.141,3.244A27.482,27.482,0,0,0,68.8,38.314c-.247,3.726-.31,7.466-.41,11.2-.043,1.551.514,2.174,2.068,2.218a39.888,39.888,0,0,0,10.919-1.111,30.353,30.353,0,0,0,12.937-7.063c1.327-1.186,1.67-1.1.988-3.046a100.293,100.293,0,0,0-7-14.864c-.537-.98-1.052-1.971-1.586-2.969,1.075-.4,1.08-.4.8-1.451-.422-1.583-.864-3.162-1.282-4.746a18.788,18.788,0,0,0-3.472-7.354c-.465-.564-.98-1.086-1.471-1.627l.115-.2c1.52.394,3.05.753,4.557,1.191a14.5,14.5,0,0,1,4.757,2.83c.942.735,1.249.606,1.635-.544.121-.36.3-.7.507-1.174a42.676,42.676,0,0,0,1.176,4.591,8.769,8.769,0,0,0,2.624,3.772,3.737,3.737,0,0,0,.251-.9,14.131,14.131,0,0,0-1.711-7.217C94.1,8.071,93.027,6.288,91.854,4.572A6.03,6.03,0,0,0,89.86,2.459c-1.739-.844-3.647-.5-5.493-.315-.091.128-.181.256-.272.385l2.068,1.527-.225.247c-.29-.138-.57-.3-.867-.41a17.247,17.247,0,0,0-2.912-1.063c-2.625-.489-5.157.3-7.68.861a3.346,3.346,0,0,0-2.17,3.329,5.049,5.049,0,0,1,.838-.273,8.114,8.114,0,0,1,1.02-.031,2.906,2.906,0,0,1-.287.966c-.72.954-1.495,1.865-2.256,2.788a15.747,15.747,0,0,0-2.569,5.593,14.829,14.829,0,0,0-1.008,5.612c.2,2.531.456,5.058.713,7.585a3.8,3.8,0,0,0,.331.9l.3.022ZM101.825,50.78l.126.119c1.442-.706,2.9-1.38,4.323-2.121a20.052,20.052,0,0,0,6.457-4.755,5.059,5.059,0,0,0-.4-6.9,7.7,7.7,0,0,0-5.233-1.777c-3.838-.14-7.532.791-11.233,1.642-.617.143-.522.517-.344.961.456,1.136.888,2.28,1.326,3.422a2.008,2.008,0,0,1-.394,2.236,24.149,24.149,0,0,1-6.31,5.068,37.495,37.495,0,0,1-16.121,4.965,11.555,11.555,0,0,1-5.625-.77,2.065,2.065,0,0,1-1.332-2.12c.019-1.122,0-2.243,0-3.468-.432.112-.692.162-.941.245a30.021,30.021,0,0,0-7.879,3.979,15.576,15.576,0,0,0-3.171,3,3.513,3.513,0,0,0,.2,5.087c1.652,1.8,3.845,2.49,6.1,3.021a21.538,21.538,0,0,0,10.808-.026,85.525,85.525,0,0,0,8.733-2.606,96.277,96.277,0,0,0,10.563-4.889c3.816-2.068,7.45-4.474,11.152-6.75.785-.484,1.526-1.039,2.287-1.561l.223.247Z" transform="translate(24.317 0.236)" fill="none" stroke="#1d1e1c" stroke-miterlimit="10" stroke-width="1"/>
      <path id="Path_135" data-name="Path 135" d="M76.528,20.353l1.364,2.586,2.355.309-1.729,2.133.4,2.349-2.39-.814-2.4,1.2.328-2.731-1.814-1.77,2.415-.623Z" transform="translate(34.137 9.565)" fill="#ffd933"/>
      <path id="Path_136" data-name="Path 136" d="M67.952,32.142a3.9,3.9,0,0,0,2.083,1.336,4.088,4.088,0,0,0,3.737-1.042,3.808,3.808,0,0,0,.679-.883,3.3,3.3,0,0,1-3.8-.453,3.368,3.368,0,0,1-.792-2.49,4.209,4.209,0,0,1,1.2-2.712,4.707,4.707,0,0,0-1.264.272,4.145,4.145,0,0,0-2.3,1.805,3.9,3.9,0,0,0,.466,4.167" transform="translate(31.523 12.171)" fill="#ffd933"/>
      <path id="Path_137" data-name="Path 137" d="M72.881,17.881a3.9,3.9,0,0,0-2.381-.675,4.08,4.08,0,0,0-3.274,2.078,3.8,3.8,0,0,0-.4,1.042,3.3,3.3,0,0,1,3.773-.669,3.372,3.372,0,0,1,1.48,2.155,4.206,4.206,0,0,1-.362,2.943,4.707,4.707,0,0,0,1.13-.626,4.154,4.154,0,0,0,1.683-2.4,3.906,3.906,0,0,0-1.654-3.853" transform="translate(31.405 8.084)" fill="#ffd933"/>
    </g>
  </g>
</svg>
